DBRep_DrawableShape

CASCADE Topology V1, (c) Matra-Datavision
Locations 1
1
              1               0               0               0 
              0               1               0               0 
              0               0               1               0 
Curve2ds 6
1 0 100 1 0 
2 0 0 1 0 -0 1 20
1 6.2831853071795862 -0 0 1 
1 0 -0 0 1 
1 0 0 1 0 
2 0 0 1 0 -0 1 20
Curves 3
2 0 0 100 0 0 1 1 0 -0 -0 1 0 20
1 20 -4.898587196589413e-15 0 0 0 1 
2 0 0 0 0 0 1 1 0 -0 -0 1 0 20
Polygon3D 0
PolygonOnTriangulations 6
51 1 3 4 5 6 7 8 9 10 11 12 13 14 15 16 17 18 19 20 21 22 23 24 25 26 27 28 29 30 31 32 33 34 35 36 37 38 39 40 41 42 43 44 45 46 47 48 49 50 51 2 
p 0.310985626705653 1 0 0.125663706143592 0.251327412287183 0.376991118430775 0.502654824574367 0.628318530717959 0.75398223686155 0.879645943005142 1.00530964914873 1.13097335529233 1.25663706143592 1.38230076757951 1.5079644737231 1.63362817986669 1.75929188601028 1.88495559215388 2.01061929829747 2.13628300444106 2.26194671058465 2.38761041672824 2.51327412287183 2.63893782901543 2.76460153515902 2.89026524130261 3.0159289474462 3.14159265358979 3.26725635973338 3.39292006587698 3.51858377202057 3.64424747816416 3.76991118430775 3.89557489045134 4.02123859659493 4.14690230273853 4.27256600888212 4.39822971502571 4.5238934211693 4.64955712731289 4.77522083345649 4.90088453960008 5.02654824574367 5.15221195188726 5.27787565803085 5.40353936417445 5.52920307031804 5.65486677646163 5.78053048260522 5.90619418874881 6.03185789489241 6.157521601036 6.28318530717959 
51 1 2 3 4 5 6 7 8 9 10 11 12 13 14 15 16 17 18 19 20 21 22 23 24 25 26 27 28 29 30 31 32 33 34 35 36 37 38 39 40 41 42 43 44 45 46 47 48 49 50 1 
p 0.310985626705653 1 0 0.125663706143592 0.251327412287183 0.376991118430775 0.502654824574367 0.628318530717959 0.75398223686155 0.879645943005142 1.00530964914873 1.13097335529233 1.25663706143592 1.38230076757951 1.5079644737231 1.63362817986669 1.75929188601028 1.88495559215388 2.01061929829747 2.13628300444106 2.26194671058465 2.38761041672824 2.51327412287183 2.63893782901543 2.76460153515902 2.89026524130261 3.0159289474462 3.14159265358979 3.26725635973338 3.39292006587698 3.51858377202057 3.64424747816416 3.76991118430775 3.89557489045134 4.02123859659493 4.14690230273853 4.27256600888212 4.39822971502571 4.5238934211693 4.64955712731289 4.77522083345649 4.90088453960008 5.02654824574367 5.15221195188726 5.27787565803085 5.40353936417445 5.52920307031804 5.65486677646163 5.78053048260522 5.90619418874881 6.03185789489241 6.157521601036 6.28318530717959 
2 52 2 
p 0.310985626705653 1 0 100 
2 53 1 
p 0.310985626705653 1 0 100 
51 53 54 55 56 57 58 59 60 61 62 63 64 65 66 67 68 69 70 71 72 73 74 75 76 77 78 79 80 81 82 83 84 85 86 87 88 89 90 91 92 93 94 95 96 97 98 99 100 101 102 52 
p 0.310985626705653 1 0 0.125663706143592 0.251327412287183 0.376991118430775 0.502654824574367 0.628318530717959 0.75398223686155 0.879645943005142 1.00530964914873 1.13097335529233 1.25663706143592 1.38230076757951 1.5079644737231 1.63362817986669 1.75929188601028 1.88495559215388 2.01061929829747 2.13628300444106 2.26194671058465 2.38761041672824 2.51327412287183 2.63893782901543 2.76460153515902 2.89026524130261 3.0159289474462 3.14159265358979 3.26725635973338 3.39292006587698 3.51858377202057 3.64424747816416 3.76991118430775 3.89557489045134 4.02123859659493 4.14690230273853 4.27256600888212 4.39822971502571 4.5238934211693 4.64955712731289 4.77522083345649 4.90088453960008 5.02654824574367 5.15221195188726 5.27787565803085 5.40353936417445 5.52920307031804 5.65486677646163 5.78053048260522 5.90619418874881 6.03185789489241 6.157521601036 6.28318530717959 
51 1 2 3 4 5 6 7 8 9 10 11 12 13 14 15 16 17 18 19 20 21 22 23 24 25 26 27 28 29 30 31 32 33 34 35 36 37 38 39 40 41 42 43 44 45 46 47 48 49 50 1 
p 0.310985626705653 1 0 0.125663706143592 0.251327412287183 0.376991118430775 0.502654824574367 0.628318530717959 0.75398223686155 0.879645943005142 1.00530964914873 1.13097335529233 1.25663706143592 1.38230076757951 1.5079644737231 1.63362817986669 1.75929188601028 1.88495559215388 2.01061929829747 2.13628300444106 2.26194671058465 2.38761041672824 2.51327412287183 2.63893782901543 2.76460153515902 2.89026524130261 3.0159289474462 3.14159265358979 3.26725635973338 3.39292006587698 3.51858377202057 3.64424747816416 3.76991118430775 3.89557489045134 4.02123859659493 4.14690230273853 4.27256600888212 4.39822971502571 4.5238934211693 4.64955712731289 4.77522083345649 4.90088453960008 5.02654824574367 5.15221195188726 5.27787565803085 5.40353936417445 5.52920307031804 5.65486677646163 5.78053048260522 5.90619418874881 6.03185789489241 6.157521601036 6.28318530717959 
Surfaces 3
2 0 0 0 0 0 1 1 0 -0 -0 1 0 20
1 0 0 100 0 0 1 1 0 -0 -0 1 0 
1 0 0 0 0 0 1 1 0 -0 -0 1 0 
Triangulations 3
102 100 1 0.0394654314345719
20 -4.89858719658941e-15 100 20 -4.89858719658941e-15 100 19.8422940262896 2.50666467128609 100 19.3716632225726 4.9737977432971 100 18.595529717765 7.36249105369356 100 17.5261336008773 9.63507348203431 100 16.1803398874989 11.7557050458495 100 14.5793725484282 13.6909421185738 100 12.7484797949738 15.4102648555158 100 10.7165358995799 16.8865585100403 100 8.51558583130145 18.0965410493204 100 6.18033988749895 19.0211303259031 100 3.74762629171449 19.6457450145738 100 1.25581039058627 19.9605345685654 100 -1.25581039058626 19.9605345685654 100 -3.74762629171449 19.6457450145738 100 -6.18033988749894 19.0211303259031 100 -8.51558583130145 18.0965410493204 100 -10.7165358995799 16.8865585100403 100 -12.7484797949738 15.4102648555158 100 -14.5793725484282 13.6909421185738 100 -16.1803398874989 11.7557050458495 100 -17.5261336008773 9.63507348203432 100 -18.595529717765 7.36249105369357 100 -19.3716632225726 4.97379774329711 100 -19.8422940262896 2.5066646712861 100 -20 2.02128619922972e-14 100 -19.8422940262896 -2.50666467128607 100 -19.3716632225726 -4.97379774329708 100 -18.595529717765 -7.36249105369354 100 -17.5261336008773 -9.63507348203428 100 -16.180339887499 -11.7557050458494 100 -14.5793725484282 -13.6909421185738 100 -12.7484797949738 -15.4102648555158 100 -10.7165358995799 -16.8865585100403 100 -8.51558583130146 -18.0965410493204 100 -6.18033988749895 -19.0211303259031 100 -3.74762629171449 -19.6457450145738 100 -1.25581039058626 -19.9605345685654 100 1.25581039058627 -19.9605345685654 100 3.7476262917145 -19.6457450145738 100 6.18033988749896 -19.0211303259031 100 8.51558583130147 -18.0965410493204 100 10.71653589958 -16.8865585100403 100 12.7484797949738 -15.4102648555158 100 14.5793725484282 -13.6909421185738 100 16.180339887499 -11.7557050458494 100 17.5261336008773 -9.63507348203428 100 18.595529717765 -7.36249105369352 100 19.3716632225726 -4.97379774329706 100 19.8422940262896 -2.50666467128608 100 20 -4.89858719658941e-15 0 20 -4.89858719658941e-15 0 19.8422940262896 2.50666467128609 0 19.3716632225726 4.9737977432971 0 18.595529717765 7.36249105369356 0 17.5261336008773 9.63507348203431 0 16.1803398874989 11.7557050458495 0 14.5793725484282 13.6909421185738 0 12.7484797949738 15.4102648555158 0 10.7165358995799 16.8865585100403 0 8.51558583130145 18.0965410493204 0 6.18033988749895 19.0211303259031 0 3.74762629171449 19.6457450145738 0 1.25581039058627 19.9605345685654 0 -1.25581039058626 19.9605345685654 0 -3.74762629171449 19.6457450145738 0 -6.18033988749894 19.0211303259031 0 -8.51558583130145 18.0965410493204 0 -10.7165358995799 16.8865585100403 0 -12.7484797949738 15.4102648555158 0 -14.5793725484282 13.6909421185738 0 -16.1803398874989 11.7557050458495 0 -17.5261336008773 9.63507348203432 0 -18.595529717765 7.36249105369357 0 -19.3716632225726 4.97379774329711 0 -19.8422940262896 2.5066646712861 0 -20 2.02128619922972e-14 0 -19.8422940262896 -2.50666467128607 0 -19.3716632225726 -4.97379774329708 0 -18.595529717765 -7.36249105369354 0 -17.5261336008773 -9.63507348203428 0 -16.180339887499 -11.7557050458494 0 -14.5793725484282 -13.6909421185738 0 -12.7484797949738 -15.4102648555158 0 -10.7165358995799 -16.8865585100403 0 -8.51558583130146 -18.0965410493204 0 -6.18033988749895 -19.0211303259031 0 -3.74762629171449 -19.6457450145738 0 -1.25581039058626 -19.9605345685654 0 1.25581039058627 -19.9605345685654 0 3.7476262917145 -19.6457450145738 0 6.18033988749896 -19.0211303259031 0 8.51558583130147 -18.0965410493204 0 10.71653589958 -16.8865585100403 0 12.7484797949738 -15.4102648555158 0 14.5793725484282 -13.6909421185738 0 16.180339887499 -11.7557050458494 0 17.5261336008773 -9.63507348203428 0 18.595529717765 -7.36249105369352 0 19.3716632225726 -4.97379774329706 0 19.8422940262896 -2.50666467128608 0 0 100 6.28318530717959 100 0.125663706143592 100 0.251327412287183 100 0.376991118430775 100 0.502654824574367 100 0.628318530717959 100 0.75398223686155 100 0.879645943005142 100 1.00530964914873 100 1.13097335529233 100 1.25663706143592 100 1.38230076757951 100 1.5079644737231 100 1.63362817986669 100 1.75929188601028 100 1.88495559215388 100 2.01061929829747 100 2.13628300444106 100 2.26194671058465 100 2.38761041672824 100 2.51327412287183 100 2.63893782901543 100 2.76460153515902 100 2.89026524130261 100 3.0159289474462 100 3.14159265358979 100 3.26725635973338 100 3.39292006587698 100 3.51858377202057 100 3.64424747816416 100 3.76991118430775 100 3.89557489045134 100 4.02123859659493 100 4.14690230273853 100 4.27256600888212 100 4.39822971502571 100 4.5238934211693 100 4.64955712731289 100 4.77522083345649 100 4.90088453960008 100 5.02654824574367 100 5.15221195188726 100 5.27787565803085 100 5.40353936417445 100 5.52920307031804 100 5.65486677646163 100 5.78053048260522 100 5.90619418874881 100 6.03185789489241 100 6.157521601036 100 6.28318530717959 0 0 0 0.125663706143592 0 0.251327412287183 0 0.376991118430775 0 0.502654824574367 0 0.628318530717959 0 0.75398223686155 0 0.879645943005142 0 1.00530964914873 0 1.13097335529233 0 1.25663706143592 0 1.38230076757951 0 1.5079644737231 0 1.63362817986669 0 1.75929188601028 0 1.88495559215388 0 2.01061929829747 0 2.13628300444106 0 2.26194671058465 0 2.38761041672824 0 2.51327412287183 0 2.63893782901543 0 2.76460153515902 0 2.89026524130261 0 3.0159289474462 0 3.14159265358979 0 3.26725635973338 0 3.39292006587698 0 3.51858377202057 0 3.64424747816416 0 3.76991118430775 0 3.89557489045134 0 4.02123859659493 0 4.14690230273853 0 4.27256600888212 0 4.39822971502571 0 4.5238934211693 0 4.64955712731289 0 4.77522083345649 0 4.90088453960008 0 5.02654824574367 0 5.15221195188726 0 5.27787565803085 0 5.40353936417445 0 5.52920307031804 0 5.65486677646163 0 5.78053048260522 0 5.90619418874881 0 6.03185789489241 0 6.157521601036 0 3 1 53 3 53 54 3 54 55 4 3 55 5 4 55 5 55 56 5 56 57 6 5 57 6 57 58 7 6 58 8 7 58 8 58 59 9 8 59 9 59 60 10 9 60 10 60 61 11 10 61 11 61 62 11 62 63 12 11 63 13 12 63 13 63 64 14 13 64 14 64 65 15 14 65 15 65 66 15 66 67 16 15 67 17 16 67 17 67 68 18 68 69 18 17 68 19 69 70 19 18 69 20 70 71 20 71 72 20 19 70 21 20 72 22 72 73 22 73 74 22 21 72 23 74 75 23 22 74 24 23 75 25 75 76 25 24 75 26 76 77 26 25 76 27 26 77 27 77 78 28 27 78 28 78 79 28 79 80 29 28 80 29 80 81 30 29 81 30 81 82 31 30 82 32 31 82 32 82 83 32 83 84 33 32 84 34 33 84 34 84 85 35 34 85 35 85 86 36 35 86 36 86 87 36 87 88 37 36 88 38 37 88 38 88 89 39 38 89 39 89 90 39 90 91 40 39 91 41 40 91 41 91 92 42 41 92 42 92 93 42 93 94 43 42 94 44 43 94 44 94 95 45 44 95 45 95 96 45 96 97 46 45 97 47 46 97 47 97 98 48 47 98 48 98 99 49 48 99 49 99 100 49 100 101 50 101 102 50 49 101 51 102 52 51 50 102 2 51 52 
50 48 1 3.77475828372553e-15
20 -4.89858719658941e-15 100 19.8422940262896 2.50666467128609 100 19.3716632225726 4.9737977432971 100 18.595529717765 7.36249105369356 100 17.5261336008773 9.63507348203431 100 16.1803398874989 11.7557050458495 100 14.5793725484282 13.6909421185738 100 12.7484797949738 15.4102648555158 100 10.7165358995799 16.8865585100403 100 8.51558583130145 18.0965410493204 100 6.18033988749895 19.0211303259031 100 3.74762629171449 19.6457450145738 100 1.25581039058627 19.9605345685654 100 -1.25581039058626 19.9605345685654 100 -3.74762629171449 19.6457450145738 100 -6.18033988749894 19.0211303259031 100 -8.51558583130145 18.0965410493204 100 -10.7165358995799 16.8865585100403 100 -12.7484797949738 15.4102648555158 100 -14.5793725484282 13.6909421185738 100 -16.1803398874989 11.7557050458495 100 -17.5261336008773 9.63507348203432 100 -18.595529717765 7.36249105369357 100 -19.3716632225726 4.97379774329711 100 -19.8422940262896 2.5066646712861 100 -20 2.02128619922972e-14 100 -19.8422940262896 -2.50666467128607 100 -19.3716632225726 -4.97379774329708 100 -18.595529717765 -7.36249105369354 100 -17.5261336008773 -9.63507348203428 100 -16.180339887499 -11.7557050458494 100 -14.5793725484282 -13.6909421185738 100 -12.7484797949738 -15.4102648555158 100 -10.7165358995799 -16.8865585100403 100 -8.51558583130146 -18.0965410493204 100 -6.18033988749895 -19.0211303259031 100 -3.74762629171449 -19.6457450145738 100 -1.25581039058626 -19.9605345685654 100 1.25581039058627 -19.9605345685654 100 3.7476262917145 -19.6457450145738 100 6.18033988749896 -19.0211303259031 100 8.51558583130147 -18.0965410493204 100 10.71653589958 -16.8865585100403 100 12.7484797949738 -15.4102648555158 100 14.5793725484282 -13.6909421185738 100 16.180339887499 -11.7557050458494 100 17.5261336008773 -9.63507348203428 100 18.595529717765 -7.36249105369352 100 19.3716632225726 -4.97379774329706 100 19.8422940262896 -2.50666467128608 100 20 0 19.8422940262896 2.50666467128609 19.3716632225726 4.97379774329709 18.595529717765 7.36249105369356 17.5261336008773 9.6350734820343 16.1803398874989 11.7557050458495 14.5793725484282 13.6909421185738 12.7484797949738 15.4102648555158 10.7165358995799 16.8865585100403 8.51558583130145 18.0965410493204 6.18033988749895 19.0211303259031 3.7476262917145 19.6457450145738 1.25581039058627 19.9605345685654 -1.25581039058626 19.9605345685654 -3.74762629171449 19.6457450145738 -6.18033988749894 19.0211303259031 -8.51558583130145 18.0965410493204 -10.7165358995799 16.8865585100403 -12.7484797949738 15.4102648555158 -14.5793725484282 13.6909421185738 -16.1803398874989 11.7557050458495 -17.5261336008773 9.63507348203432 -18.595529717765 7.36249105369357 -19.3716632225726 4.97379774329711 -19.8422940262896 2.5066646712861 -20 2.1316282072803e-14 -19.8422940262896 -2.50666467128607 -19.3716632225726 -4.97379774329708 -18.595529717765 -7.36249105369354 -17.5261336008773 -9.63507348203428 -16.180339887499 -11.7557050458494 -14.5793725484282 -13.6909421185738 -12.7484797949738 -15.4102648555158 -10.7165358995799 -16.8865585100403 -8.51558583130146 -18.0965410493204 -6.18033988749895 -19.0211303259031 -3.74762629171449 -19.6457450145738 -1.25581039058626 -19.9605345685654 1.25581039058627 -19.9605345685654 3.7476262917145 -19.6457450145738 6.18033988749896 -19.0211303259031 8.51558583130147 -18.0965410493204 10.71653589958 -16.8865585100403 12.7484797949738 -15.4102648555158 14.5793725484283 -13.6909421185738 16.180339887499 -11.7557050458494 17.5261336008773 -9.63507348203428 18.595529717765 -7.36249105369352 19.3716632225726 -4.97379774329706 19.8422940262896 -2.50666467128607 1 18 47 1 47 50 34 31 32 34 32 33 12 1 2 12 13 14 12 14 15 12 15 18 12 18 1 3 12 2 35 31 34 11 12 3 28 29 30 28 30 31 9 10 11 6 4 5 8 3 4 8 11 3 8 9 11 8 4 6 7 8 6 25 26 27 25 27 28 25 35 36 25 31 35 25 28 31 24 25 36 41 36 37 41 37 38 41 38 39 41 39 40 42 24 36 42 36 41 21 22 23 44 23 24 44 42 43 44 24 42 44 21 23 45 21 44 45 20 21 47 20 45 47 18 19 47 19 20 47 45 46 16 17 18 49 47 48 15 16 18 50 47 49 
50 48 1 3.77475828372553e-15
20 -4.89858719658941e-15 0 19.8422940262896 2.50666467128609 0 19.3716632225726 4.9737977432971 0 18.595529717765 7.36249105369356 0 17.5261336008773 9.63507348203431 0 16.1803398874989 11.7557050458495 0 14.5793725484282 13.6909421185738 0 12.7484797949738 15.4102648555158 0 10.7165358995799 16.8865585100403 0 8.51558583130145 18.0965410493204 0 6.18033988749895 19.0211303259031 0 3.74762629171449 19.6457450145738 0 1.25581039058627 19.9605345685654 0 -1.25581039058626 19.9605345685654 0 -3.74762629171449 19.6457450145738 0 -6.18033988749894 19.0211303259031 0 -8.51558583130145 18.0965410493204 0 -10.7165358995799 16.8865585100403 0 -12.7484797949738 15.4102648555158 0 -14.5793725484282 13.6909421185738 0 -16.1803398874989 11.7557050458495 0 -17.5261336008773 9.63507348203432 0 -18.595529717765 7.36249105369357 0 -19.3716632225726 4.97379774329711 0 -19.8422940262896 2.5066646712861 0 -20 2.02128619922972e-14 0 -19.8422940262896 -2.50666467128607 0 -19.3716632225726 -4.97379774329708 0 -18.595529717765 -7.36249105369354 0 -17.5261336008773 -9.63507348203428 0 -16.180339887499 -11.7557050458494 0 -14.5793725484282 -13.6909421185738 0 -12.7484797949738 -15.4102648555158 0 -10.7165358995799 -16.8865585100403 0 -8.51558583130146 -18.0965410493204 0 -6.18033988749895 -19.0211303259031 0 -3.74762629171449 -19.6457450145738 0 -1.25581039058626 -19.9605345685654 0 1.25581039058627 -19.9605345685654 0 3.7476262917145 -19.6457450145738 0 6.18033988749896 -19.0211303259031 0 8.51558583130147 -18.0965410493204 0 10.71653589958 -16.8865585100403 0 12.7484797949738 -15.4102648555158 0 14.5793725484282 -13.6909421185738 0 16.180339887499 -11.7557050458494 0 17.5261336008773 -9.63507348203428 0 18.595529717765 -7.36249105369352 0 19.3716632225726 -4.97379774329706 0 19.8422940262896 -2.50666467128608 0 20 -3.5527136788005e-15 19.8422940262896 2.50666467128609 19.3716632225726 4.97379774329709 18.595529717765 7.36249105369356 17.5261336008773 9.6350734820343 16.1803398874989 11.7557050458495 14.5793725484282 13.6909421185738 12.7484797949738 15.4102648555158 10.7165358995799 16.8865585100403 8.51558583130145 18.0965410493204 6.18033988749895 19.0211303259031 3.7476262917145 19.6457450145738 1.25581039058627 19.9605345685654 -1.25581039058626 19.9605345685654 -3.74762629171449 19.6457450145738 -6.18033988749894 19.0211303259031 -8.51558583130145 18.0965410493204 -10.7165358995799 16.8865585100403 -12.7484797949738 15.4102648555158 -14.5793725484282 13.6909421185738 -16.1803398874989 11.7557050458495 -17.5261336008773 9.63507348203432 -18.595529717765 7.36249105369357 -19.3716632225726 4.97379774329711 -19.8422940262896 2.5066646712861 -20 2.1316282072803e-14 -19.8422940262896 -2.50666467128607 -19.3716632225726 -4.97379774329708 -18.595529717765 -7.36249105369354 -17.5261336008773 -9.63507348203428 -16.180339887499 -11.7557050458494 -14.5793725484282 -13.6909421185738 -12.7484797949738 -15.4102648555158 -10.7165358995799 -16.8865585100403 -8.51558583130146 -18.0965410493204 -6.18033988749895 -19.0211303259031 -3.74762629171449 -19.6457450145738 -1.25581039058626 -19.9605345685654 1.25581039058627 -19.9605345685654 3.7476262917145 -19.6457450145738 6.18033988749896 -19.0211303259031 8.51558583130147 -18.0965410493204 10.71653589958 -16.8865585100403 12.7484797949738 -15.4102648555158 14.5793725484283 -13.6909421185738 16.180339887499 -11.7557050458494 17.5261336008773 -9.63507348203428 18.595529717765 -7.36249105369352 19.3716632225726 -4.97379774329706 19.8422940262896 -2.50666467128607 34 31 32 34 32 33 3 1 2 35 31 34 3 18 47 3 47 50 3 50 1 11 12 13 11 13 14 11 14 15 28 29 30 28 30 31 4 18 3 9 10 11 6 4 5 8 15 18 8 11 15 8 18 4 8 9 11 8 4 6 7 8 6 25 26 27 25 27 28 25 35 36 25 31 35 25 28 31 24 25 36 41 36 37 41 37 38 41 38 39 41 39 40 42 24 36 42 36 41 21 22 23 44 23 24 44 42 43 44 24 42 44 21 23 45 21 44 45 20 21 47 20 45 47 18 19 47 19 20 47 45 46 16 17 18 49 47 48 15 16 18 50 47 49 

TShapes 14
Ve
1e-07
20 -4.89858719658941e-15 100
0 0

0101101
*
Ed
 1e-07 1 1 0
1  1 0 0 6.28318530717959
2  1 1 0 0 6.28318530717959
2  2 2 0 0 6.28318530717959
6  1 1 0
6  2 2 0
0

0101100
+14 0 -14 0 *
Ve
1e-07
20 -4.89858719658941e-15 0
0 0

0101101
*
Ed
 1e-07 1 1 0
1  2 0 0 100
3  3 4CN 1 0 0 100
7  3 4 1 0
0

0101000
-14 0 +12 0 *
Ed
 1e-07 1 1 0
1  3 0 0 6.28318530717959
2  5 1 0 0 6.28318530717959
2  6 3 0 0 6.28318530717959
6  5 1 0
6  6 3 0
0

0101100
+12 0 -12 0 *
Wi

0101000
-13 0 +11 0 +10 0 -11 0 *
Fa
0  1e-07 1 0
2  1
0101000
+9 0 *
Wi

0101000
+13 0 *
Fa
0  1e-07 2 0
2  2
0101000
+7 0 *
Wi

0101000
-10 0 *
Fa
0  1e-07 3 0
2  3
0101000
-5 0 *
Sh

0101100
+8 0 +6 0 -4 0 *
So

0100100
+3 0 *
Co

1100000
+2 1 *

+1 0 